<svg width="100" height="100" viewBox="0 0 100 100" fill="none" xmlns="http://www.w3.org/2000/svg">
<path fill-rule="evenodd" clip-rule="evenodd" d="M47.6051 88.0055L46.6208 87.8492C46.1044 87.7564 45.5824 87.699 45.0583 87.6774C44.6065 87.6762 44.1577 87.7501 43.7301 87.8961C43.5598 87.9579 43.3801 87.9897 43.1989 87.9899C42.9097 87.9832 42.6281 87.8965 42.3853 87.7392C42.1425 87.582 41.9482 87.3604 41.8239 87.0992C40.2753 86.6223 38.8581 85.7933 37.6833 84.6774C37.4375 84.4685 37.1918 84.279 36.9613 84.1012L36.961 84.101C36.8985 84.0527 36.837 84.0053 36.777 83.9586L33.8395 81.818C32.8551 81.1149 31.8708 80.4117 30.902 79.6774C27.0831 76.8605 23.4311 73.8242 19.9645 70.5836L19.5426 70.193L19.5307 70.1818C16.7545 67.5615 14.3546 65.2965 14.0114 61.1617C13.7926 57.6078 13.7926 54.0438 14.0114 50.4899C14.0114 49.891 14.045 49.2977 14.0787 48.7033L14.0787 48.7033C14.1012 48.3052 14.1238 47.9066 14.1364 47.5055C10.7449 44.7285 7.79004 41.4576 5.37075 37.8024C5.19065 37.4796 5.11639 37.1084 5.15844 36.7412C5.20049 36.374 5.35672 36.0292 5.60512 35.7555C8.96166 31.6062 12.8311 27.8995 17.1207 24.7242C17.3478 24.5578 17.6205 24.4651 17.902 24.4586C18.1265 24.4621 18.3466 24.5212 18.5426 24.6305C23.3623 22.6323 28.4031 21.2161 33.5582 20.4117L37.4645 19.6305L37.8286 19.5569L37.8286 19.5569C40.5741 19.0019 43.3995 18.4308 46.1676 17.8024H46.4176C48.3466 17.2844 50.3279 16.9856 52.3239 16.9117C52.8461 16.9118 53.3679 16.9431 53.8864 17.0055C56.0621 17.3975 58.1681 18.1083 60.1364 19.1149L61.0114 19.5055L65.2301 21.3492C66.1701 21.759 67.1193 22.1594 68.0635 22.5577L68.0652 22.5584C68.3447 22.6763 68.6238 22.794 68.902 22.9117C73.9314 24.9266 78.6626 27.6181 82.9645 30.9117C83.1405 30.9315 83.3106 30.9875 83.4639 31.0762C83.6171 31.165 83.7504 31.2845 83.8551 31.4274L84.9176 32.9117L84.9622 32.9742C87.4795 36.5017 90.0789 40.1441 93.5739 42.443C93.8296 42.6122 94.0363 42.8456 94.1734 43.1198C94.3105 43.394 94.3732 43.6994 94.3551 44.0055C94.3371 44.2678 94.2532 44.5213 94.1112 44.7425C93.9691 44.9637 93.7736 45.1455 93.5426 45.2711C90.5739 46.8336 87.6676 48.5367 84.8551 50.2086L83.5739 50.9742C83.7099 54.4961 83.9191 58.0325 84.1023 61.131L84.1208 61.443C84.2246 63.1366 84.4333 64.8221 84.7458 66.4899C84.9914 67.5171 84.9914 68.5877 84.7458 69.6149C83.6846 73.3601 79.1322 75.2196 75.8052 76.5785L75.7926 76.5836L75.1364 76.8492C70.1833 78.9899 65.3708 81.2242 60.6833 83.4117L60.2301 83.6305C57.6005 84.9218 54.898 86.0591 52.1364 87.0367L51.4957 87.2555C50.4423 87.6923 49.3221 87.9459 48.1833 88.0055H47.6051ZM46.4645 52.6305C46.2666 55.9422 46.3188 59.2641 46.6208 62.568C46.777 64.7555 46.9176 67.0211 46.9176 69.2399C46.9176 72.8805 46.777 76.5211 46.6676 79.2711C46.6676 80.0359 46.6305 80.7953 46.5933 81.5556V81.5557C46.5667 82.1003 46.54 82.6453 46.527 83.193V83.818V84.4899C47.6652 84.3673 48.7633 83.9995 49.7458 83.4117L50.4645 83.0524C51.8864 82.3805 53.3239 81.7242 54.7614 81.0836L58.4489 79.3961L61.777 77.8336C64.902 76.2711 68.277 74.7086 71.6208 73.3961C73.4415 72.7147 75.2206 71.9269 76.9489 71.0367L77.1989 70.8961C78.3708 70.2711 79.9958 69.3336 80.3239 68.2242C80.4898 67.4913 80.5685 66.7413 80.5583 65.9899V64.8492C80.6989 63.2867 80.777 61.8024 80.7926 60.2555V58.8961C80.7926 56.7399 80.7926 54.5836 80.8864 52.4274C79.0739 53.4899 77.152 54.568 75.152 55.5524C73.7911 56.2464 72.3354 56.9167 70.9088 57.5737L70.9086 57.5738C70.6973 57.6711 70.4866 57.7681 70.277 57.8649C66.0901 59.6552 62.0604 61.7929 58.2301 64.2555C57.3907 64.9242 56.3762 65.3365 55.3083 65.443C54.8638 65.4283 54.4277 65.319 54.0289 65.1223C53.6301 64.9256 53.2779 64.6461 52.9958 64.3024C52.066 63.1825 51.3508 61.9006 50.8864 60.5211L50.4176 59.443C50.2143 58.9901 50.0164 58.5263 49.8208 58.0678L49.8203 58.0667C49.6854 57.7503 49.5515 57.4365 49.4176 57.1305C49.3078 56.8794 49.1769 56.5722 49.0343 56.2377L49.034 56.2369L49.0339 56.2367C48.7509 55.5725 48.422 54.8006 48.1207 54.1461C48.0114 53.9274 47.8864 53.6617 47.7614 53.3649L47.7273 53.2839C47.616 53.0191 47.5141 52.7766 47.3864 52.5211C47.1982 52.4514 47.0154 52.3678 46.8395 52.2711C46.7228 52.3993 46.5976 52.5194 46.4645 52.6305ZM17.0426 60.2399C16.6629 56.8082 16.5358 53.3534 16.6621 49.9033L17.7145 50.7399C19.1356 51.814 20.4775 52.9889 21.7301 54.2555C22.2613 54.8179 22.7769 55.4117 23.2925 56.0054L23.2926 56.0055C24.3163 57.2562 25.4454 58.4167 26.6676 59.4742C27.809 60.5768 29.3031 61.2408 30.8864 61.3492H31.5895C33.4895 60.9353 35.2628 60.0727 36.7614 58.8336C37.3239 58.4742 37.8239 58.0992 38.3239 57.7086C39.3718 56.879 40.4789 56.127 41.6364 55.4586L42.9332 54.7711L44.0739 54.1774C43.9176 56.818 43.9176 59.4899 43.9176 62.0836C44.0114 64.2555 44.0426 66.5055 43.9176 68.6774C43.8503 69.8564 43.7587 70.9548 43.6603 72.1348L43.6602 72.136C43.6217 72.5976 43.5822 73.0717 43.5426 73.568C43.5141 73.9266 43.4849 74.2853 43.4557 74.6438L43.4556 74.6448C43.341 76.0509 43.2267 77.455 43.152 78.8492C43.131 79.3536 43.1029 79.8475 43.0749 80.3402C43.0196 81.3127 42.9645 82.2809 42.9645 83.318C42.9727 83.4168 42.9727 83.5161 42.9645 83.6149C42.3477 83.1378 41.6947 82.7094 41.0114 82.3336C40.5114 82.0367 40.0114 81.7399 39.5739 81.4274C39.0702 81.0732 38.5507 80.6913 38.0233 80.3036L38.0232 80.3036C37.5035 79.9216 36.9762 79.534 36.4489 79.1617L34.3239 77.5992C30.573 74.9421 26.9687 72.0838 23.527 69.0367C22.1364 67.8024 20.7614 66.4899 19.1989 64.9274C17.9159 63.6918 17.146 62.018 17.0426 60.2399ZM52.2662 54.5725L52.2663 54.5726L52.3395 54.7711C52.3989 54.9255 52.4515 55.0708 52.4999 55.2045C52.5789 55.4228 52.6467 55.6102 52.7145 55.7555C53.3083 57.1774 53.902 58.5836 54.527 59.9899C54.7926 60.5524 55.3239 61.6617 55.5895 62.0836C56.0727 61.7587 56.5227 61.3871 56.9332 60.9742C57.152 60.7711 57.3395 60.5992 57.4645 60.5055C61.0709 57.9912 64.9692 55.924 69.0739 54.3492C69.1851 54.3009 69.2967 54.2526 69.4084 54.2042C69.5018 54.1637 69.5955 54.1231 69.6892 54.0825C71.5125 53.2927 73.3797 52.4838 75.1208 51.5992C77.0583 50.6149 79.4333 49.1617 81.4489 47.8961C84.1326 46.148 86.9305 44.582 89.8239 43.2086C87.3661 40.6308 85.1438 37.8384 83.1833 34.8649C80.5942 36.58 77.8598 38.0649 75.0114 39.3024C71.8864 40.7399 68.6832 42.4274 65.1364 44.3336C64.0422 44.9342 62.9566 45.5435 61.8637 46.1568L61.8629 46.1573L61.8626 46.1574C60.8803 46.7087 59.8921 47.2634 58.8864 47.818L55.4332 49.7711C55.1296 49.9368 54.8015 50.139 54.449 50.3563L54.449 50.3563L54.3701 50.4049L54.3082 50.443C53.3516 51.0885 52.3489 51.6629 51.3083 52.1617C51.6923 53.0153 52.0117 53.8818 52.2662 54.5725ZM8.9645 36.9742C11.6806 40.483 14.8308 43.6331 18.3395 46.3492C18.9332 46.8336 19.5583 47.318 20.1833 47.7867C20.3102 47.8855 20.4378 47.9845 20.5658 48.0837C21.5714 48.8638 22.6001 49.6617 23.5426 50.5211C24.3395 51.2555 25.1051 52.0836 25.777 52.818C26.4489 53.5524 27.0114 54.1461 27.652 54.7711L27.9958 55.0992L28.0046 55.1079C28.878 55.9657 29.9525 57.0211 31.0426 57.0211H31.3395C32.6184 56.6047 33.795 55.9232 34.7926 55.0211L35.5426 54.4586L36.4176 53.818C37.4395 53.009 38.5207 52.2778 39.652 51.6305C40.1364 51.3649 40.6207 51.1305 41.1207 50.8961C41.9959 50.4922 42.8418 50.0276 43.652 49.5055C43.2864 49.1008 42.9005 48.7149 42.4958 48.3492C39.5583 45.7242 36.527 43.2867 34.2145 41.4742C29.1364 37.4586 23.6051 33.443 16.8395 28.8336C13.9569 31.2856 11.3195 34.0119 8.9645 36.9742Z" fill="black"/>
</svg>
