<svg width="136" height="136" viewBox="0 0 136 136" fill="none" xmlns="http://www.w3.org/2000/svg">
<path fill-rule="evenodd" clip-rule="evenodd" d="M108.227 127.118H106.761C104.267 127.267 101.781 126.722 99.578 125.546C99.0608 125.203 98.6393 124.735 98.353 124.185C98.0668 123.635 97.9253 123.021 97.9418 122.401C97.6095 121.57 97.3092 120.723 97.0132 119.888L97.0131 119.888L97.013 119.888L97.0129 119.887L96.8793 119.511C96.8353 119.387 96.7892 119.255 96.7411 119.118L96.6576 118.878C96.3481 117.989 95.9684 116.898 95.5618 115.983C94.7524 114.257 93.8369 112.582 92.8205 110.968C92.0133 109.42 90.9981 107.991 89.803 106.718C89.6184 106.507 89.3938 106.334 89.1421 106.21C88.8905 106.086 88.6168 106.013 88.3368 105.996C87.7784 106.034 87.2278 106.148 86.7005 106.336L85.1493 106.867C83.822 107.411 82.4398 107.81 81.0268 108.057C80.0417 108.204 79.0476 108.282 78.0518 108.291C77.1179 108.293 76.1859 108.208 75.268 108.036C72.6118 107.519 70.1786 106.199 68.298 104.253L67.6605 104.466C66.5276 104.748 65.3643 104.891 64.1968 104.891C62.1135 104.965 60.0456 104.508 58.1872 103.564C56.3287 102.62 54.7405 101.219 53.5718 99.4932C51.6734 100.007 49.716 100.272 47.7493 100.279C44.311 100.328 40.9317 99.3835 38.0168 97.5594C35.4943 95.7763 33.391 93.4647 31.8533 90.7856C30.3156 88.1065 29.3804 85.1244 29.113 82.0469C28.1955 82.1465 27.2734 82.1961 26.3505 82.1957C25.3199 82.1921 24.2906 82.1211 23.2693 81.9832C19.7887 81.4219 16.5792 79.7613 14.1105 77.2444C9.54367 72.7579 6.93848 66.646 6.86426 60.2444C6.93035 57.5828 7.52844 54.9613 8.62329 52.5344C9.71814 50.1075 11.2876 47.9242 13.2393 46.1132C15.9462 43.3134 19.2313 41.1378 22.8655 39.7382C22.938 35.8596 24.4533 32.1472 27.1155 29.3257C32.1641 23.8879 39.1656 20.6776 46.5805 20.4007H46.963C48.2227 20.4048 49.4777 20.5545 50.703 20.8469C51.6282 19.5209 52.6739 18.2832 53.8268 17.1494C55.6419 15.4244 57.7843 14.0805 60.1275 13.1973C62.4706 12.314 64.9671 11.9093 67.4693 12.0069C73.0501 11.9961 78.4926 13.7434 83.0243 17.0007C85.2042 18.5808 87.0284 20.6005 88.3793 22.9294C91.4149 21.5884 94.6874 20.866 98.0055 20.8044C100.783 20.7933 103.513 21.5271 105.911 22.9294C109.211 24.9177 111.804 27.8904 113.327 31.4294C114.702 33.9543 115.287 36.8343 115.006 39.6957C117.991 40.2942 120.773 41.6503 123.084 43.6337C125.395 45.6171 127.157 48.1613 128.202 51.0219C129.649 54.6826 129.895 58.7088 128.903 62.5182C128.295 64.7494 127.287 66.8517 125.928 68.7232L125.588 69.2332L125.456 69.4162L125.32 69.6065C124.748 70.4048 124.161 71.2241 123.463 71.9957C126.035 74.2451 127.691 77.3606 128.117 80.7507C128.726 85.9507 127.294 91.1844 124.122 95.3494C122.682 97.111 120.88 98.5412 118.837 99.5424C116.794 100.544 114.56 101.092 112.286 101.151C115.226 104.939 117.15 109.415 117.874 114.156C118.044 115.728 118.384 121.147 115.431 124.504C114.491 125.436 113.36 126.152 112.116 126.603C110.872 127.054 109.545 127.23 108.227 127.118ZM104.317 119.851C105.162 119.968 106.014 120.032 106.867 120.042C107.719 120.123 108.577 119.977 109.353 119.617C110.267 119.086 110.883 116.323 110.862 114.198C110.729 111.368 110.096 108.584 108.992 105.974C108.158 103.87 107.089 101.867 105.804 100.003C103.667 99.2428 101.666 98.1452 99.8755 96.7519C98.7063 95.781 97.5991 94.7377 96.5605 93.6282L95.9655 93.0119C95.498 93.3732 95.0093 93.6919 94.5418 93.9894C91.1732 96.0066 87.3116 97.0511 83.3855 97.0069C79.0504 97.0137 74.7932 95.854 71.0605 93.6494C69.8728 92.9482 68.774 92.1063 67.788 91.1419C65.0168 93.845 61.8226 96.0773 58.3318 97.7507C59.4322 98.641 60.7547 99.214 62.1568 99.4082H63.3893C64.4042 99.414 65.4095 99.2115 66.343 98.8132C66.7597 98.7416 67.1664 98.6203 67.5543 98.4519C67.9179 98.2713 68.26 98.0503 68.5743 97.7932L68.8293 97.5169H68.978L69.743 97.0919H70.2318C70.5951 97.0631 70.9605 97.1065 71.307 97.2196C71.6534 97.3326 71.9741 97.5131 72.2505 97.7507C72.5342 98.0238 72.7553 98.3552 72.8984 98.7221C73.0415 99.089 73.1032 99.4826 73.0793 99.8757C73.0467 100.383 72.9015 100.877 72.6543 101.321C73.8082 101.997 75.1205 102.356 76.458 102.362C77.1091 102.354 77.7575 102.275 78.3918 102.128C79.5969 101.824 80.7763 101.426 81.9193 100.938C83.9723 99.9861 86.1845 99.424 88.443 99.2807C88.992 99.2765 89.54 99.3263 90.0793 99.4294C94.3293 100.322 96.9855 104.678 98.898 107.929C101.324 111.591 103.153 115.615 104.317 119.851ZM99.3655 89.9307C100.264 90.6405 101.216 91.2799 102.213 91.8432C104.355 92.948 106.73 93.5237 109.141 93.5219C110.99 93.583 112.827 93.1966 114.496 92.3957C115.581 91.8426 116.514 91.0329 117.216 90.0369C118.62 87.5319 119.29 84.6817 119.149 81.8132C119.022 78.7957 118.257 76.8407 117.024 76.3519C116.751 76.2578 116.464 76.2076 116.174 76.2032C115.189 76.2684 114.25 76.6483 113.497 77.2869C112.434 78.0461 111.68 79.1625 111.372 80.4319L111.345 80.5175L111.313 80.6201C111.21 80.9497 111.115 81.254 110.989 81.5582C110.822 81.9882 110.53 82.359 110.152 82.6237C109.774 82.8885 109.326 83.0353 108.864 83.0457C108.399 83.0394 107.946 82.8917 107.567 82.6222C107.187 82.3527 106.899 81.9742 106.739 81.5369C105.571 78.6044 107.611 75.1619 109.736 73.0369C109.974 72.7591 110.229 72.4965 110.501 72.2507C109.272 70.2908 107.563 68.6768 105.537 67.5613C103.51 66.4458 101.232 65.8656 98.9193 65.8757C98.386 65.8688 97.8531 65.9043 97.3255 65.9819C94.5217 66.36 91.9408 67.7144 90.0368 69.8069C88.6687 71.5141 87.6766 73.491 87.1255 75.6082L87.0389 75.8529L87.0386 75.8539L87.0383 75.8548C86.7089 76.7861 86.3916 77.683 86.0205 78.5619C85.8198 79.0207 85.4851 79.4082 85.0605 79.6736C84.6358 79.939 84.1409 80.07 83.6405 80.0494C83.0043 80.0636 82.3821 79.8609 81.8763 79.4747C81.3704 79.0886 81.0109 78.5419 80.8568 77.9244C80.6098 76.0132 80.7517 74.0717 81.2739 72.2167C81.7961 70.3616 82.6878 68.6312 83.8955 67.1294C83.0567 65.79 81.9392 64.6469 80.6192 63.7779C79.2991 62.9088 77.8074 62.3343 76.2455 62.0932C74.9271 61.8576 73.5898 61.7438 72.2505 61.7532C69.8918 61.7423 67.5535 62.1898 65.3655 63.0707C62.5943 64.435 60.423 66.7727 59.2668 69.6369C58.4617 71.1974 57.9094 72.8758 57.6305 74.6094V75.2682C57.6305 75.9572 57.4664 76.8103 57.3599 77.3639L57.3599 77.364L57.3543 77.3932C57.1524 78.3961 56.8014 79.363 56.313 80.2619C56.0031 80.8396 55.5392 81.3201 54.9728 81.6502C54.4064 81.9803 53.7596 82.147 53.1043 82.1319C52.4526 82.1416 51.814 81.9485 51.2768 81.5794C48.8755 79.9857 46.7505 76.6069 48.8755 69.6794C48.5078 69.6502 48.1383 69.6502 47.7705 69.6794C47.523 69.6583 47.2742 69.6583 47.0268 69.6794C44.9089 69.9764 42.8955 70.7861 41.1618 72.0382C39.7294 73.2008 38.6376 74.7287 38.0017 76.4605C37.3659 78.1923 37.2095 80.0636 37.5493 81.8769C37.741 84.0616 38.493 86.1599 39.7326 87.969C40.9721 89.7781 42.6574 91.2369 44.6255 92.2044C46.2184 92.8463 47.9233 93.1642 49.6405 93.1394C55.1523 92.8582 60.4017 90.6984 64.5155 87.0194C63.3099 84.7654 62.6163 82.2732 62.4841 79.7205C62.3519 77.1677 62.7843 74.6172 63.7505 72.2507C63.937 71.7602 64.269 71.3386 64.702 71.0423C65.135 70.746 65.6483 70.5893 66.173 70.5932C66.5853 70.5803 66.9944 70.6684 67.3648 70.8499C67.7352 71.0314 68.0556 71.3007 68.298 71.6344C68.5118 71.9402 68.6486 72.2931 68.6966 72.6631C68.7447 73.033 68.7028 73.4092 68.5743 73.7594C67.6818 76.3307 66.6405 81.1757 69.8068 84.8732C72.3214 87.6126 75.7709 89.3108 79.4755 89.6332C80.4482 89.757 81.4275 89.8208 82.408 89.8244C83.1827 89.8305 83.9567 89.7808 84.7243 89.6757C86.2331 89.5013 87.704 89.0851 89.0805 88.4432C90.542 87.6317 91.9101 86.6626 93.1605 85.5532C94.3005 84.7523 95.1622 83.6158 95.6255 82.3019C95.6487 82.0262 95.6487 81.7489 95.6255 81.4732C95.6255 80.3682 95.6255 77.8607 98.3455 77.7757H98.4518C98.914 77.7768 99.3708 77.8759 99.792 78.0663C100.213 78.2568 100.589 78.5343 100.896 78.8807C101.949 80.1933 102.465 81.8562 102.341 83.5344C102.065 85.9318 101.022 88.1756 99.3655 89.9307ZM29.0493 45.5182C28.0235 45.5355 27.0062 45.7074 26.0318 46.0282C19.2955 48.1532 12.8993 54.6557 13.8555 62.1357C14.4842 66.7164 16.6942 70.9332 20.103 74.0569C22.6169 76.2432 25.8688 77.3905 29.198 77.2657C29.6208 74.4536 30.7117 71.7838 32.3792 69.4803C34.0468 67.1768 36.2423 65.3068 38.7818 64.0269L40.2055 63.3894L40.333 63.2619L39.7593 63.5594C39.6984 63.4489 39.6376 63.3369 39.5765 63.2242L39.5763 63.2239C39.4023 62.9035 39.2254 62.5775 39.0368 62.2632C38.8434 61.9593 38.6304 61.6682 38.3993 61.3919C38.2426 61.2566 38.1066 61.0991 37.9955 60.9244C37.5148 60.406 37.0039 59.9164 36.4655 59.4582C34.8239 58.1331 33.0754 56.9462 31.238 55.9094C30.9466 55.7328 30.6552 55.5599 30.3623 55.3861C29.9503 55.1416 29.5353 54.8953 29.113 54.6344C28.6606 54.3672 28.3104 53.9566 28.1179 53.4677C27.9255 52.9788 27.9017 52.4396 28.0505 51.9357C28.1958 51.4242 28.5012 50.9729 28.9219 50.6478C29.3426 50.3227 29.8565 50.141 30.388 50.1294C30.8054 50.1323 31.2151 50.2421 31.578 50.4482L33.703 51.5532C35.0843 52.2969 36.423 53.0194 37.7405 53.8057C37.9828 52.7727 38.2952 51.7575 38.6755 50.7669L38.8243 50.3419C39.3113 48.9134 39.9302 47.5333 40.673 46.2194C41.6718 44.5194 43.2655 42.2032 45.4118 41.7994C45.7369 41.7688 46.0641 41.7688 46.3893 41.7994C47.0473 41.7887 47.6988 41.9308 48.2925 42.2148C48.8862 42.4987 49.4059 42.9167 49.8105 43.4357C50.3409 44.1166 50.6514 44.9428 50.7008 45.8045C50.7501 46.6662 50.536 47.5224 50.0868 48.2594C49.531 49.0766 48.8064 49.7651 47.9618 50.2782L47.7918 50.3844L47.558 50.5757C47.3706 50.7422 47.1932 50.9196 47.0268 51.1069L46.4318 51.7444L46.1768 52.0419L46.0705 52.2332C45.7433 52.6348 45.4585 53.0692 45.2205 53.5294L44.8593 54.2732L44.6043 54.8894C44.413 55.4207 44.243 55.9519 44.0943 56.5257C43.9729 56.9939 43.9647 57.0517 43.9427 57.2073C43.9377 57.2423 43.9321 57.2824 43.9243 57.3332V57.3757C43.909 57.6659 43.909 57.9567 43.9243 58.2469V58.5869C44.4768 59.2882 44.9018 59.9469 45.3268 60.6057C45.5702 61.0347 45.8625 61.4341 46.198 61.7957C46.7971 61.7204 47.4005 61.6849 48.0043 61.6894C49.5007 61.6815 50.9877 61.9258 52.403 62.4119C53.9298 60.1096 55.8589 58.1013 58.098 56.4832C60.7867 54.7861 63.8868 53.8532 67.0655 53.7844C67.0799 51.7666 67.5445 49.7774 68.4255 47.9619C69.1851 46.4704 70.0739 45.0483 71.0818 43.7119C71.219 43.506 71.3581 43.302 71.4974 43.0976C71.8326 42.6059 72.169 42.1123 72.4843 41.5869C72.8069 41.0661 73.2575 40.6364 73.7931 40.3389C74.3287 40.0413 74.9315 39.8857 75.5443 39.8869C76.1502 39.8917 76.7467 40.0372 77.2868 40.3119C77.6935 40.5371 78.0514 40.841 78.3396 41.2058C78.6278 41.5706 78.8405 41.9891 78.9655 42.4369C79.0916 42.8994 79.1227 43.3825 79.057 43.8573C78.9913 44.3321 78.83 44.7887 78.583 45.1994C78.1155 45.9432 77.6268 46.6657 77.138 47.3244C76.3579 48.4482 75.6482 49.6192 75.013 50.8307L74.8218 51.2132V51.5107L74.7155 51.8082C74.6294 52.028 74.5654 52.2558 74.5243 52.4882V52.9557C74.5028 53.3662 74.5028 53.7776 74.5243 54.1882C77.1397 54.8482 79.5922 56.0373 81.7303 57.6819C83.8683 59.3266 85.6467 61.392 86.9555 63.7507C89.6126 61.6116 92.8604 60.3363 96.263 60.0957C97.1828 58.4642 97.6933 56.634 97.7505 54.7619C97.7864 53.7263 97.6864 52.6904 97.453 51.6807C97.453 51.4649 97.3557 51.2395 97.2598 51.0174L97.2598 51.0174L97.2597 51.0173L97.2597 51.0173C97.214 50.9113 97.1686 50.8061 97.1343 50.7032C96.7378 49.8364 96.5348 48.8938 96.5393 47.9407C96.5761 47.2936 96.854 46.6839 97.3181 46.2316C97.7823 45.7792 98.399 45.5171 99.0468 45.4969C99.5169 45.4934 99.9768 45.6343 100.364 45.9007C101.275 46.5156 101.938 47.4345 102.234 48.4932C102.461 49.1377 102.638 49.7983 102.766 50.4694C103.057 51.9093 103.171 53.3794 103.106 54.8469C103.003 56.8261 102.565 58.7734 101.809 60.6057C104.433 61.1764 106.901 62.3125 109.04 63.9347C111.18 65.5568 112.94 67.6261 114.198 69.9982C115.247 69.5847 116.364 69.3686 117.492 69.3607H117.619C118.153 67.5226 118.985 65.7852 120.084 64.2182C120.693 63.2846 121.239 62.3121 121.721 61.3069C122.705 58.7913 122.92 56.0397 122.337 53.4019C121.943 50.7713 120.633 48.3639 118.639 46.6032C116.646 44.8425 114.095 43.8413 111.436 43.7757H111.138C110.695 43.8121 110.252 43.7087 109.87 43.48C109.489 43.2513 109.189 42.9088 109.013 42.5007C108.729 42.2653 108.503 41.967 108.354 41.6294C107.879 40.749 107.637 39.7612 107.653 38.7607V38.3782V36.9969C107.498 35.8102 107.199 34.6469 106.761 33.5332C105.959 31.2682 104.474 29.308 102.511 27.9232C100.84 26.8664 98.898 26.32 96.9218 26.3507C94.6321 26.4014 92.3709 26.8695 90.2493 27.7319L90.4618 28.8157C90.4885 28.9427 90.5158 29.0702 90.5431 29.1983C90.6898 29.8844 90.8397 30.5856 90.9293 31.3019C96.348 33.1294 96.4755 36.0619 96.0718 37.6769C95.9022 38.2948 95.5417 38.8433 95.0418 39.2441C94.5418 39.6448 93.928 39.8772 93.288 39.9082H92.9268C91.7625 39.8521 90.6558 39.3853 89.803 38.5907L89.3568 38.2507L88.7618 37.8682L88.1243 37.5069L87.7205 37.3157L87.3168 37.1457L86.828 36.9757L86.063 36.7207C83.7796 36.103 81.435 35.7396 79.0718 35.6369C78.3504 35.6369 77.6585 35.3504 77.1484 34.8403C76.6383 34.3302 76.3518 33.6383 76.3518 32.9169C76.3518 32.1955 76.6383 31.5037 77.1484 30.9936C77.6585 30.4835 78.3504 30.1969 79.0718 30.1969C79.6006 30.1969 80.1404 30.1695 80.6717 30.1425C81.1865 30.1164 81.6932 30.0907 82.1743 30.0907H82.8755V29.8144C82.7753 28.9659 82.6047 28.1272 82.3655 27.3069C81.7318 25.6076 80.6617 24.1052 79.263 22.9507C76.367 20.5917 72.8108 19.1885 69.0843 18.9344C68.6963 18.9344 68.298 18.9034 67.8945 18.8719C67.4802 18.8397 67.0603 18.8069 66.6405 18.8069C63.661 18.6752 60.7075 19.4136 58.1405 20.9319C57.2831 21.527 56.4732 22.1877 55.718 22.9082L55.973 23.0357C58.5145 24.1259 60.6326 26.0128 62.008 28.4119L63.368 28.2844H64.4093C65.2136 28.1916 66.0285 28.2809 66.7936 28.5458C67.5587 28.8106 68.2544 29.2442 68.8293 29.8144C69.2366 30.2817 69.5076 30.8519 69.6126 31.4629C69.7175 32.0738 69.6524 32.7018 69.4243 33.2782C69.1885 33.8916 68.7758 34.4211 68.2386 34.7994C67.7013 35.1778 67.0637 35.3879 66.4068 35.4032C65.8099 35.4003 65.2214 35.2623 64.6855 34.9994L64.2605 34.8719H63.8568H62.688C61.7086 34.8862 60.7331 35.0001 59.7768 35.2119C58.5066 35.4589 57.2565 35.7998 56.0368 36.2319L55.293 36.5082L54.9105 36.6994C54.5673 36.8425 54.2397 37.0205 53.933 37.2307C53.5159 37.5229 53.0185 37.6788 52.5093 37.6769C51.9236 37.6566 51.358 37.4588 50.8874 37.1096C50.4168 36.7605 50.0635 36.2765 49.8743 35.7219C49.6829 35.2309 49.654 34.6916 49.7917 34.1829C49.9294 33.6743 50.2264 33.2231 50.6393 32.8957C51.7846 32.0222 53.0426 31.3075 54.3793 30.7707L53.848 30.3882C52.5275 29.502 51.0993 28.7879 49.598 28.2632C48.6889 27.9002 47.7276 27.685 46.7505 27.6257C45.0838 27.6554 43.4302 27.9274 41.8418 28.4332C36.3805 30.0057 30.7068 33.7669 29.8568 38.7607C31.4597 38.8299 33.0335 39.2126 34.4893 39.8869C37.1455 41.0982 39.823 43.5844 39.8655 46.3682C39.8585 47.0933 39.5688 47.7871 39.058 48.3019C38.8108 48.5609 38.5142 48.7677 38.1857 48.9101C37.8572 49.0524 37.5035 49.1274 37.1455 49.1307C36.8713 49.1315 36.5987 49.0885 36.338 49.0032C35.4655 48.6821 34.6694 48.1827 34.0005 47.5369C33.9103 47.4606 33.8246 47.3842 33.7397 47.3086L33.7397 47.3086C33.5647 47.1527 33.3933 47 33.193 46.8569C32.5518 46.3819 31.8327 46.0224 31.068 45.7944C30.4143 45.5947 29.7326 45.5014 29.0493 45.5182Z" fill="black"/>
</svg>
