<svg width="100" height="100" viewBox="0 0 100 100" fill="none" xmlns="http://www.w3.org/2000/svg">
<path d="M50.0415 8.14178C49.7665 8.15845 48.9082 8.22511 48.1248 8.29178C40.6165 8.96677 34.2915 10.9751 26.9498 15.0001C21.5998 17.9418 18.2165 21.0918 14.3998 26.7084C12.0165 30.2168 10.0915 33.6834 9.00818 36.4584C8.09151 38.7918 7.62484 40.6584 6.84151 45.0834C6.00818 49.7668 5.88318 50.9918 5.94151 53.6918C5.98318 55.9001 6.14151 57.0918 6.66651 59.1751C7.35818 61.9084 8.22484 64.0001 9.97484 67.1001C11.3832 69.6084 12.3665 70.7751 14.4915 72.4501C17.0665 74.4751 19.5332 75.9334 22.8748 77.4168C24.8165 78.2751 25.6415 78.7168 25.6915 78.9334C25.7748 79.2751 25.9998 81.0084 26.1332 82.4168C26.2248 83.3334 26.2748 84.8668 26.2998 87.0418C26.3332 91.2584 26.3748 91.5418 27.3498 93.2918C27.6248 93.7918 27.9498 94.3668 28.0582 94.5584C28.1748 94.7751 28.4415 95.0418 28.7332 95.2418C28.9998 95.4168 29.2665 95.6334 29.3332 95.7168C29.9915 96.5084 32.6165 96.2334 34.7832 95.1501C35.9998 94.5418 36.8498 93.8918 40.0498 91.1251C44.1915 87.5418 47.7582 85.3251 50.5498 84.6168C51.4915 84.3834 54.0915 84.0168 56.9998 83.7084C61.4415 83.2418 62.8415 83.0251 65.4582 82.3751C71.0332 80.9918 76.6915 78.6334 80.0332 76.2918C82.5998 74.5001 85.6832 71.4751 87.4498 69.0168C88.3248 67.8001 89.0832 66.4918 90.0832 64.4584C92.5665 59.4084 94.2582 53.4418 94.5915 48.5584C94.7082 46.8001 94.6415 43.3418 94.4582 41.6751C93.8582 36.2584 92.0915 30.8751 89.4415 26.4001C86.5582 21.5168 82.6582 17.0168 79.2415 14.6501C77.1248 13.1751 72.6748 10.9834 70.4165 10.3001C68.8165 9.81678 66.9332 9.50011 65.6748 9.50011C64.9332 9.50011 64.7498 9.60011 64.9165 9.92511C65.0082 10.0918 64.9998 10.1001 64.8665 10.0501C64.0165 9.71677 60.9082 8.95011 59.2832 8.67511C56.4332 8.19178 52.9332 7.99178 50.0415 8.14178ZM58.4165 11.5001C61.4332 11.7168 64.4665 12.2334 67.2582 13.0084L68.4832 13.3501L69.7665 14.7334C70.4748 15.5001 71.8832 17.0584 72.8832 18.2084C73.8832 19.3501 75.2248 20.8418 75.8582 21.5168C78.3165 24.1251 80.2165 26.6584 82.2082 29.9585C84.1832 33.2251 86.1498 38.5001 87.0832 43.0501C87.7415 46.2251 87.8248 49.8334 87.3332 53.1084C86.7498 56.9251 85.2582 61.0001 83.3498 63.9584C81.3082 67.1251 77.9498 70.4251 74.8748 72.2751C72.9665 73.4251 69.5998 74.8918 66.2665 76.0334C63.0082 77.1501 62.2498 77.3001 56.6248 77.9584C47.9832 78.9751 45.3665 79.9251 39.0748 84.3668C38.1082 85.0418 36.3748 86.3501 35.2248 87.2668C34.0665 88.1918 32.8498 89.1251 32.5082 89.3584L31.8915 89.7751L31.9415 89.3668C32.3665 85.9751 32.0748 79.3834 31.3748 76.6251C30.9415 74.9084 30.0665 73.5251 28.9915 72.8668C28.0915 72.3251 25.8332 71.2501 23.4582 70.2334C20.9165 69.1501 20.1415 68.7668 18.8748 67.9418C16.6415 66.4834 15.0998 64.8251 13.6832 62.3584C11.8248 59.1001 10.9582 55.1168 11.2332 51.1001C11.4082 48.6251 11.9082 45.0334 12.4248 42.5418C12.9832 39.8251 13.9415 37.6418 16.6082 32.9918C18.9582 28.8918 20.6915 26.5084 23.0665 24.1084C24.8165 22.3334 26.3832 21.0501 28.7082 19.4834C32.4165 16.9751 35.6415 15.3001 39.4582 13.9168C44.8998 11.9501 51.9665 11.0501 58.4165 11.5001Z" fill="black"/>
<path d="M38.8002 30.375C38.4919 30.4334 38.1002 30.5167 37.9252 30.5667C37.7585 30.6167 37.4002 30.725 37.1252 30.8C36.2669 31.0334 35.8419 31.3084 34.9585 32.2C33.7585 33.4084 32.8752 34.7417 30.7502 38.55C29.4169 40.9167 28.6669 42.175 28.0835 42.9917L27.7585 43.45L27.6669 43.2C27.3502 42.3834 27.1919 40.825 27.1169 37.8334C27.0669 35.5917 26.9752 34.3667 26.8335 33.9417C26.7669 33.7667 26.6419 33.6417 26.4169 33.5417C26.1252 33.4084 26.0419 33.4084 25.6919 33.5C25.1002 33.6584 25.0002 33.8084 25.0002 34.575C25.0002 34.925 24.9419 35.7834 24.8752 36.4834C24.5335 40.0917 24.5502 43.0667 24.9252 44.3084C25.1085 44.9 25.7835 46.25 26.1585 46.7584C26.4085 47.1 27.0752 47.65 27.5002 47.875C28.1669 48.2167 29.1252 47.8 30.1002 46.75C30.9419 45.8417 31.5669 44.9167 33.2252 42.1667C35.9835 37.5667 37.1169 36.0917 38.4419 35.3667C38.8002 35.1667 38.9752 35.1334 39.4585 35.1334C40.1335 35.1334 40.7835 35.375 41.0919 35.7334C41.8835 36.6584 42.2085 37.075 43.3752 38.625C45.9752 42.0834 47.1002 43.3084 48.8752 44.65C50.4419 45.8334 51.4919 46.2084 52.7002 46.0167C54.4502 45.7417 56.0002 44.6417 57.7585 42.4084C59.6752 39.975 60.5252 39.0834 61.0502 38.95C61.4669 38.8417 62.2085 38.9667 62.7669 39.225C63.0752 39.375 63.9585 39.8917 64.7252 40.3834C66.4085 41.4584 67.1585 41.825 68.4669 42.2C70.1919 42.7 71.4085 42.8667 73.1669 42.8584C74.0169 42.85 74.9169 42.8167 75.1669 42.775C75.5585 42.7167 75.6335 42.675 75.7002 42.4834C75.7669 42.2834 75.7419 42.2084 75.5335 41.9417C75.1085 41.4167 69.9002 36.6584 69.0002 35.9834C67.5169 34.8584 64.1419 32.9084 63.1335 32.5834C62.7419 32.4584 61.6585 32.45 61.2502 32.575C61.0919 32.625 60.8169 32.6667 60.6419 32.6667C60.4669 32.6667 60.2085 32.7167 60.0585 32.775C59.9085 32.8417 59.4919 32.9584 59.1252 33.0417C58.7585 33.1167 58.2502 33.2834 58.0002 33.4084C57.3252 33.7334 56.2752 34.825 54.9752 36.55C53.7252 38.2167 53.0252 39.025 52.3585 39.575C51.9585 39.9084 51.9002 39.925 51.6669 39.85C51.1669 39.675 49.7752 38.5167 48.5835 37.2834C47.4502 36.1084 47.1502 35.7834 45.9585 34.375C44.7169 32.9167 43.8252 31.9834 43.2919 31.5917C42.7335 31.175 41.5002 30.5334 40.9752 30.375C40.4835 30.2334 39.6169 30.2334 38.8002 30.375Z" fill="black"/>
<path d="M39.7914 55.1002C38.8747 55.2752 37.3497 55.7002 36.9914 55.8752C35.733 56.5168 34.5247 57.9918 32.708 61.1002L31.8997 62.5002H31.508C31.2913 62.5002 30.9247 62.5585 30.6913 62.6252C30.2497 62.7585 30.083 62.9668 30.083 63.4085C30.083 63.9168 30.4247 64.9502 30.858 65.7335C31.2413 66.4168 31.383 66.6002 31.833 66.9335C32.1247 67.1585 32.4163 67.3335 32.4913 67.3335C32.808 67.3335 33.4913 66.9002 33.9663 66.4085C34.2497 66.1168 35.0747 65.0668 35.808 64.0835C37.283 62.1085 38.2914 61.0502 39.108 60.6335C39.5247 60.4252 39.6497 60.4002 40.1414 60.4335C41.133 60.4918 41.6497 60.8002 43.1164 62.2335C44.7497 63.8252 45.5747 64.5585 46.783 65.4918C48.9664 67.1835 50.0414 67.5335 51.5497 67.0752C52.6664 66.7418 53.483 66.1502 55.3664 64.3418C55.9664 63.7585 56.6414 63.1585 56.858 63.0168C57.308 62.7002 58.083 62.4835 59.4414 62.2835C60.5247 62.1252 62.7997 62.1668 63.9997 62.3668C64.3914 62.4335 65.0497 62.5418 65.4581 62.6085C65.8747 62.6835 66.3831 62.7585 66.6081 62.7835C66.9997 62.8335 67.0081 62.8252 67.1414 62.5335L67.2831 62.2335L66.9581 61.6002C66.0914 59.9085 64.4997 57.9335 63.2664 57.0002C62.6414 56.5335 60.5747 55.4918 59.8664 55.2835C59.183 55.0918 57.1997 55.2335 56.333 55.5418C56.1247 55.6168 55.6747 55.7335 55.333 55.8002C54.608 55.9502 53.7997 56.3002 53.308 56.6835C53.1164 56.8335 52.2747 57.6252 51.4414 58.4418C50.033 59.8168 49.8997 59.9335 49.6914 59.8752C49.3414 59.7918 48.583 59.3085 47.2664 58.3418C46.608 57.8502 45.7247 57.2085 45.308 56.9002C44.458 56.2835 42.5914 55.3002 41.8997 55.1168C41.408 54.9918 40.433 54.9835 39.7914 55.1002Z" fill="black"/>
</svg>
