<svg width="100" height="100" viewBox="0 0 100 100" fill="none" xmlns="http://www.w3.org/2000/svg">
<path d="M86.3331 4.18331C86.2165 4.23331 85.9165 4.28331 85.6665 4.29165C85.4165 4.30831 84.9665 4.39165 84.6664 4.48331C84.3664 4.57498 83.8664 4.69998 83.5581 4.74998C82.7831 4.89165 82.5164 5.09165 82.2748 5.70831C82.0831 6.19998 82.0831 6.21665 82.2164 6.83331C82.2914 7.17498 82.4414 7.67498 82.5581 7.93331C82.7664 8.39165 82.7664 8.41665 82.6414 8.93331C82.5664 9.22498 82.4831 9.86665 82.4498 10.375C82.4081 10.875 82.3748 20.3083 82.3748 31.3333C82.3748 47.8166 82.3498 51.8 82.2498 53.7916C82.1081 56.625 82.0748 74.8833 82.1998 82.0666L82.2748 86.3333H80.3664C78.1414 86.3333 73.7498 86.45 69.0414 86.6333C64.3164 86.8166 47.9248 86.9083 35.0831 86.825C29.2414 86.7916 24.2331 86.7416 23.9581 86.7166C23.6831 86.6916 22.8414 86.6333 22.0831 86.5833C21.3248 86.5333 20.6331 86.475 20.5331 86.4583C20.3581 86.4166 20.3581 86.3916 20.3081 82.4C20.2748 80.1833 20.2164 77.475 20.1664 76.375C20.1164 75.275 20.0248 73.0416 19.9498 71.4166C19.8581 69.275 19.7998 65 19.7498 55.9583C19.6581 40.425 19.5748 35.0416 19.2081 21.5833C19.1414 19.175 19.0664 15.5916 19.0331 13.625L18.9748 10.0416L26.9248 10.0666C37.6831 10.1166 52.1081 9.89165 61.3748 9.54165C61.9748 9.52498 63.3581 9.48331 64.4581 9.45831C68.1914 9.37498 71.6998 9.24165 74.9998 9.07498C76.8081 8.98331 78.8914 8.91665 79.6248 8.91665C80.3581 8.92498 81.0081 8.93331 81.0581 8.92498C81.1164 8.91665 81.2414 8.74165 81.3414 8.51665C81.4414 8.29998 81.5581 8.04165 81.6081 7.93331C81.6581 7.83331 81.6998 7.56665 81.6998 7.35831C81.7081 7.00831 81.6831 6.96665 81.4164 6.80831C81.1581 6.66665 80.9748 6.64998 79.4581 6.65831C78.5414 6.66665 77.0248 6.63331 76.0831 6.59165C73.5248 6.45831 70.1248 6.34165 66.1664 6.24998C64.2164 6.19998 60.6414 6.10831 58.2081 6.04165C46.8331 5.72498 32.2998 5.54165 24.0414 5.60831C20.4498 5.64165 17.5998 5.69998 17.4581 5.74165C17.3248 5.78331 16.9831 5.85831 16.7081 5.90831C15.8164 6.06665 15.5914 6.15831 15.4664 6.39998C15.3831 6.57498 15.3414 7.49998 15.2998 10.6666C15.2498 14.6416 15.1998 16.6833 14.9581 25.125C14.8914 27.4583 14.7998 31.25 14.7498 33.5416C14.6998 35.8333 14.6248 39.6416 14.5748 42C14.5248 44.3583 14.4581 51.1666 14.4164 57.125C14.3748 63.0833 14.3164 68.3666 14.2914 68.875C14.2164 70.3 14.0081 75.5333 13.9164 78.25C13.8748 79.6 13.8248 82.5416 13.8164 84.7916C13.7914 89.5083 13.7498 89.2166 14.6081 90.7166C14.8914 91.2166 15.2331 91.8333 15.3581 92.0833C15.6498 92.675 15.7748 92.8166 16.3331 93.1833C16.5831 93.35 16.8998 93.6 17.0331 93.7416C17.2664 93.9833 17.3248 94 17.8664 94C18.1914 94 19.2164 93.925 20.1498 93.8333C23.6664 93.4916 24.6248 93.475 40.9581 93.475C59.4914 93.4833 61.7164 93.525 72.0414 94.05C74.7998 94.1833 82.7164 94.2666 84.7915 94.175C85.8915 94.1333 86.0748 94.1 86.3498 93.9333C86.6915 93.725 87.1248 93.1083 87.4081 92.4166C87.5165 92.175 87.6915 91.825 87.7998 91.65C87.9081 91.475 87.9998 91.225 87.9998 91.0833C87.9998 90.9416 88.0915 90.6833 88.1998 90.5083C88.3165 90.3333 88.4415 89.975 88.4915 89.7166C88.5415 89.45 88.6081 89.1916 88.6415 89.1416C88.6748 89.0833 88.7081 87.1833 88.7165 84.9166C88.7165 82.65 88.7665 79.2166 88.8248 77.2916C88.9831 71.6916 88.9748 58.575 88.8081 53.625C88.6165 47.9 88.6081 45.925 88.7331 30.2916C88.8081 20.075 88.8165 15.65 88.7498 12.75C88.6998 10.6166 88.6581 8.79998 88.6581 8.70831C88.6581 8.54165 88.8331 7.77498 88.9915 7.24998C89.0415 7.09165 89.0831 6.59998 89.0831 6.14998C89.0831 5.41665 89.0665 5.32498 88.8748 5.09998C88.7165 4.90831 88.5831 4.84998 88.2415 4.80831C87.8748 4.76665 87.7498 4.69998 87.4831 4.41665C87.2165 4.14165 87.1081 4.08331 86.8498 4.09165C86.6831 4.09165 86.4498 4.13331 86.3331 4.18331Z" fill="black"/>
<path d="M35.2331 22.4585C35.1997 22.4918 34.9414 22.5501 34.6497 22.5918C34.3581 22.6251 33.8997 22.7168 33.6247 22.7918C33.3497 22.8585 32.9664 22.9668 32.7664 23.0168C31.8081 23.2585 30.8247 24.7501 30.3747 26.6251C30.1831 27.4084 30.1164 29.2668 30.2414 30.2918C30.3997 31.6584 30.8331 33.1668 31.1164 33.3501C31.3331 33.5001 31.3831 33.3918 31.7914 31.8918C31.9497 31.3084 32.1747 30.6334 32.2997 30.3834C32.7747 29.4001 33.9247 28.3334 34.6331 28.2001C35.0247 28.1251 35.4581 28.2084 35.6914 28.3918C36.0497 28.6751 36.8831 29.6501 37.7998 30.8418C38.8498 32.2251 39.5914 33.0418 40.1998 33.4751C40.4331 33.6501 40.8164 33.9418 41.0414 34.1251C41.2748 34.3084 41.6998 34.5751 41.9998 34.7084C42.4748 34.9251 42.6331 34.9584 43.2998 34.9584C43.9998 34.9584 44.0914 34.9334 44.6831 34.6418C45.5164 34.2334 46.1414 33.5668 47.4748 31.6584C48.5831 30.0834 49.2164 29.3168 49.8164 28.8168C50.7081 28.0834 51.2248 28.4668 53.5581 31.5418C54.8414 33.2501 55.4498 33.9418 56.0414 34.3751C56.2248 34.5168 56.5664 34.7751 56.7914 34.9584C58.1998 36.0918 59.5831 35.9501 60.8914 34.5501C61.5331 33.8668 62.2581 32.6751 63.5748 30.1668C64.5248 28.3668 64.8748 27.8418 65.2998 27.5751C65.5581 27.4168 65.6248 27.4084 65.9748 27.4918C66.6498 27.6668 66.9664 27.8918 67.7998 28.8084C69.0915 30.2251 70.4998 31.6001 71.0165 31.9501C71.4581 32.2501 71.5165 32.2668 71.7331 32.1751C71.8998 32.1084 72.0498 31.9251 72.1998 31.6418C72.3165 31.4001 72.4165 31.1668 72.4165 31.1168C72.4165 31.0668 72.4748 30.9084 72.5498 30.7584C72.6248 30.6084 72.6998 30.2751 72.7248 30.0168L72.7665 29.5418L72.1581 28.7084C71.8248 28.2501 71.2498 27.4084 70.8831 26.8334C69.3665 24.4501 68.6581 23.6918 67.3581 23.0251C66.8831 22.7835 66.3498 22.5585 66.1581 22.5335C65.6914 22.4585 64.8581 22.6001 63.2414 23.0418C62.1664 23.3251 61.5664 23.9918 60.0748 26.5001C59.5164 27.4418 58.8914 28.4668 58.6831 28.7751L58.3081 29.3418L58.0664 29.0501C57.9331 28.8834 57.2914 28.0334 56.6498 27.1501C54.6581 24.4251 53.6581 23.3835 52.7248 23.0668C52.5831 23.0168 52.2748 22.8585 52.0414 22.7168C51.6664 22.4835 51.5664 22.4585 50.9581 22.4668C49.7914 22.4751 47.8081 22.9085 47.0581 23.3168C46.2081 23.7751 45.2914 24.7834 43.7914 26.9168C43.3831 27.4918 42.9748 28.0584 42.8664 28.1834L42.6831 28.4084L42.2331 27.8918C41.9831 27.6084 41.3831 26.8834 40.8998 26.2918C39.4748 24.5418 38.1664 23.2918 37.5331 23.0835C37.3664 23.0251 37.0414 22.8668 36.8164 22.7251C36.4831 22.5168 36.2831 22.4585 35.8414 22.4335C35.5414 22.4168 35.2664 22.4251 35.2331 22.4585Z" fill="black"/>
<path d="M52.75 44.4751C52.5 44.4918 50.8334 44.6168 49.0417 44.7501C45.0834 45.0501 43.6 45.1418 40.4167 45.2501C35.325 45.4334 34.7583 45.5001 30.1 46.5501C29.4333 46.7001 29.25 46.8584 29.25 47.3001C29.25 47.6834 29.9 48.8668 30.275 49.1751L30.5833 49.4251L32.2083 49.3001C34.35 49.1251 34.9333 49.1334 39.5833 49.3751C44.6834 49.6418 47.125 49.7334 50.7167 49.8001C53.2 49.8501 53.775 49.8334 54.625 49.7168C57.625 49.2918 62.325 48.0501 63.7084 47.3084C64.1084 47.1001 64.2167 46.9918 64.2334 46.8168C64.2584 46.6168 64.2084 46.5668 63.7334 46.3501C62.5584 45.7918 60.1917 45.1834 57.6667 44.8001C55.55 44.4751 54.225 44.3834 52.75 44.4751Z" fill="black"/>
<path d="M50.2915 61.3418C42.8332 61.5668 36.4999 62.1168 33.4332 62.7918C31.5082 63.2251 29.4915 64.0084 29.1999 64.4584C28.9665 64.8168 28.9582 65.2501 29.1832 65.6501C29.4332 66.0751 29.9332 66.4751 30.3249 66.5501C30.4832 66.5834 31.4082 66.5584 32.3749 66.5001C34.9249 66.3418 36.6249 66.4418 44.5415 67.2001C48.4915 67.5834 52.7082 67.8084 54.3332 67.7168C56.8248 67.5918 60.9415 66.5334 63.1248 65.4668C64.1832 64.9501 64.9165 64.3418 64.9165 63.9834C64.9165 63.7834 64.8332 63.7334 63.8748 63.3418C61.9998 62.5668 59.8248 61.9584 57.6665 61.5918C55.5498 61.2418 54.6165 61.2084 50.2915 61.3418Z" fill="black"/>
</svg>
