<svg width="100" height="100" viewBox="0 0 100 100" fill="none" xmlns="http://www.w3.org/2000/svg">
<path d="M88.7968 66.1406C88.7435 65.7094 88.6652 65.2816 88.5624 64.8594L88.2499 63.7187C87.8124 62.1562 87.3437 60.7812 86.8749 59.3437L85.4374 55.0312L85.3437 54.6875C85.3437 54.5625 85.2343 54.4219 85.1562 54.2812C85.0297 54.0123 84.878 53.7559 84.703 53.5156C84.3357 53.037 83.8794 52.6338 83.3593 52.3281C82.8413 52.0304 82.2693 51.8384 81.6766 51.7633C81.0838 51.6882 80.4821 51.7315 79.9062 51.8906C78.544 52.3222 77.1487 52.641 75.7343 52.8437C74.5188 53.0454 73.2733 52.9652 72.0937 52.6094C71.8615 52.5263 71.645 52.4048 71.453 52.25C71.2049 52.0746 70.9699 51.8814 70.7499 51.6719C70.3014 51.2488 69.9077 50.7711 69.578 50.25C68.9204 49.1721 68.5144 47.9597 68.3905 46.7031C68.2756 45.4842 68.4803 44.2564 68.9843 43.1406C69.5212 42.0239 70.3265 41.0576 71.328 40.3281C72.3275 39.5856 73.49 39.0928 74.7187 38.8906C75.2197 38.8235 75.712 38.703 76.1874 38.5312C76.7363 38.2946 77.2348 37.9552 77.6562 37.5312C78.486 36.6902 78.9519 35.5565 78.953 34.375C78.9453 33.7877 78.8177 33.2081 78.578 32.6719L78.1249 31.5625C77.7925 30.8353 77.4222 30.126 77.0155 29.4375C76.2173 28.0684 75.308 26.7672 74.2968 25.5469C73.7812 24.9531 73.2499 24.375 72.7343 23.8125C72.0776 23.1035 71.2566 22.5668 70.3437 22.25C69.4009 21.9672 68.3958 21.9672 67.453 22.25C66.6093 22.4844 65.8905 22.7344 65.2187 22.9688C63.7968 23.4375 62.3593 23.8906 60.9062 24.3125C60.1874 24.5313 59.4687 24.7188 58.7343 24.9219L58.4218 25C58.4218 24.7969 58.5155 24.5938 58.5468 24.3906C58.7075 23.5043 58.7756 22.6036 58.7499 21.7031C58.7039 19.8853 58.2948 18.095 57.5468 16.4375C56.0379 13.0513 53.2608 10.392 49.8124 9.03125C46.3372 7.82212 42.5331 7.97336 39.1648 9.45458C35.7966 10.9358 33.1139 13.6372 31.6562 17.0156C30.3913 20.4282 30.3913 24.1811 31.6562 27.5938C32.2619 29.3258 33.2075 30.9195 34.4374 32.2812L35.1405 32.9844C31.9201 33.9306 28.9626 35.6099 26.4999 37.8906C25.1441 39.3395 24.2424 41.1538 23.9062 43.1094C23.6717 44.95 23.7669 46.8177 24.1874 48.625L24.9843 52.125H24.6718C24.2187 52.125 23.703 52.125 23.2343 52.125C21.3101 52.2198 19.4298 52.733 17.7243 53.629C16.0188 54.5249 14.5292 55.7819 13.3593 57.3125C12.1887 58.8498 11.3904 60.6375 11.0271 62.5352C10.6638 64.433 10.7454 66.3891 11.2655 68.25C11.7493 70.04 12.5823 71.7167 13.7166 73.1835C14.851 74.6503 16.2642 75.8783 17.8749 76.7969C21.0744 78.5428 24.8231 78.9904 28.3437 78.0469C30.0839 77.5827 31.7288 76.8158 33.203 75.7812C33.4678 75.5872 33.7444 75.4098 34.0312 75.25C34.0312 75.4375 34.1718 75.625 34.2187 75.7969C34.6249 77.1562 34.9218 78.7812 35.3124 80.3437C35.6874 81.9755 36.1623 83.5827 36.7343 85.1562C37.3335 86.9486 38.2549 88.6166 39.453 90.0781C39.8364 90.5243 40.2718 90.9229 40.7499 91.2656C41.272 91.6347 41.846 91.9243 42.453 92.125C43.4632 92.4432 44.5193 92.591 45.578 92.5625C47.3046 92.5098 49.0147 92.2098 50.6562 91.6719C51.4355 91.4356 52.2022 91.1592 52.953 90.8437L54.078 90.3594L54.6249 90.1094C54.9051 89.97 55.1765 89.8134 55.4374 89.6406C56.4948 88.8878 57.244 87.7778 57.5468 86.5156C57.8411 85.2583 57.6514 83.9363 57.0155 82.8125C56.4875 81.8146 56.2493 80.6888 56.328 79.5625C56.39 78.4062 56.772 77.2899 57.4314 76.3381C58.0908 75.3862 59.0017 74.6363 60.0624 74.1719C61.1632 73.6475 62.3698 73.3832 63.589 73.3994C64.8081 73.4157 66.0073 73.7121 67.0937 74.2656C68.2322 74.8371 69.2423 75.6345 70.0624 76.6094C70.2722 76.8457 70.4654 77.0963 70.6405 77.3594L70.9062 77.75L71.2187 78.25C71.8647 79.2556 72.8525 79.9937 73.9999 80.3281C74.5696 80.5099 75.1715 80.5685 75.7655 80.5C76.2938 80.437 76.8162 80.3326 77.328 80.1875L79.4687 79.5625C81.0626 79.1462 82.5999 78.5376 84.0468 77.75C85.6546 76.8379 86.9711 75.489 87.8437 73.8594C88.6447 72.2592 89.0569 70.4926 89.0468 68.7031C89.03 67.8438 88.9464 66.987 88.7968 66.1406ZM75.5155 76.375C75.5155 76.375 75.4062 76.375 75.3437 76.375C75.2233 76.36 75.1068 76.3229 74.9999 76.2656C74.7343 76.0938 74.7968 76.1719 74.203 75.2031C73.74 74.4932 73.2173 73.8242 72.6405 73.2031C71.4563 71.9464 70.0464 70.9234 68.4843 70.1875C67.6908 69.8055 66.8576 69.5121 65.9999 69.3125C65.1249 69.1719 64.2343 69.0937 63.3593 69.0156C61.5853 69.0216 59.833 69.4051 58.2187 70.1406C56.5462 70.8776 55.0772 72.0088 53.9374 73.4375C52.8015 74.906 52.069 76.6457 51.8124 78.4844C51.5361 80.3165 51.7351 82.1888 52.3905 83.9219C52.4655 84.1459 52.5543 84.365 52.6562 84.5781L52.8124 84.8906V84.9844C52.8281 85.0353 52.8281 85.0897 52.8124 85.1406C52.8079 85.2117 52.7855 85.2805 52.7473 85.3407C52.709 85.4008 52.6562 85.4502 52.5937 85.4844L52.1718 85.6719L51.2187 86.0625C50.578 86.3125 49.9218 86.5312 49.2812 86.7187C48.0635 87.0823 46.8017 87.2768 45.5312 87.2969C44.9987 87.3015 44.4697 87.2115 43.9687 87.0312C43.836 86.9837 43.7177 86.903 43.6249 86.7969C43.461 86.6469 43.3143 86.4792 43.1874 86.2969C42.4606 85.2009 41.848 84.0333 41.3593 82.8125L39.6874 78.375C39.099 76.7755 38.4209 75.2106 37.6562 73.6875C37.4147 73.2475 37.1432 72.8246 36.8437 72.4219C36.5865 72.058 36.2507 71.7567 35.8612 71.5404C35.4717 71.324 35.0385 71.198 34.5937 71.1719C33.8905 71.184 33.2063 71.4012 32.6249 71.7969C32.1874 72.0938 31.828 72.3906 31.4999 72.6562C29.9419 74.1346 27.9289 75.0414 25.7893 75.2286C23.6497 75.4159 21.5098 74.8727 19.7187 73.6875C18.5957 72.9228 17.639 71.939 16.9059 70.7951C16.1729 69.6512 15.6787 68.371 15.453 67.0312C15.1965 65.7644 15.2187 64.4569 15.5182 63.1996C15.8177 61.9422 16.3873 60.7651 17.1874 59.75C18.0081 58.7585 19.0402 57.9632 20.2082 57.4225C21.3762 56.8817 22.6504 56.6092 23.9374 56.625H25.1562C25.6789 56.6514 26.2029 56.6199 26.7187 56.5312C27.6338 56.418 28.4688 55.9529 29.0468 55.2344C29.416 54.7678 29.6389 54.2024 29.6874 53.6094C29.7094 53.2533 29.6832 52.8959 29.6093 52.5469C29.2187 50.875 28.7812 49.2344 28.4062 47.8594C28.0275 46.5407 27.8899 45.1645 27.9999 43.7969C28.167 42.5673 28.7132 41.4204 29.5624 40.5156C31.7622 38.5518 34.3568 37.0814 37.1718 36.2031C37.648 36.0431 38.1084 35.8391 38.5468 35.5938C38.8262 35.4237 39.0666 35.1966 39.2523 34.9274C39.4381 34.6582 39.5651 34.3528 39.6249 34.0313C39.7237 33.5005 39.6469 32.952 39.4062 32.4688C39.1562 31.9413 38.818 31.4604 38.4062 31.0469C38.0937 30.7031 37.6718 30.3594 37.4843 30.1562C36.4736 29.2025 35.6658 28.0546 35.1093 26.7812C33.9578 24.1698 33.8571 21.215 34.828 18.5313C36.6718 13.2188 43.6718 10.5781 48.6718 12.7031C51.2293 13.8064 53.2615 15.8554 54.3437 18.4219C54.9204 19.7033 55.2846 21.0702 55.4218 22.4688C55.4919 23.1649 55.4919 23.8663 55.4218 24.5625L55.3437 25.0938C55.3437 25.3438 55.3437 25.5781 55.2343 25.8438C55.1969 26.1447 55.1969 26.4491 55.2343 26.75C55.2646 26.9906 55.3387 27.2236 55.453 27.4375C55.5507 27.63 55.6872 27.8003 55.8539 27.9374C56.0207 28.0746 56.214 28.1757 56.4218 28.2344H56.5937H56.703C56.9714 28.2215 57.238 28.1849 57.4999 28.125C57.7812 28.0469 57.8749 27.9844 58.078 27.9219L59.1405 27.5625C59.8437 27.3125 60.5468 27.0781 61.2655 26.8594C62.6874 26.3906 64.1093 25.9688 65.5468 25.5625C66.9843 25.1563 68.5468 24.6406 69.2343 24.9844C69.9218 25.3281 70.7968 26.5469 71.6405 27.6875C72.4611 28.8195 73.1974 30.0102 73.8437 31.25C74.1562 31.8906 74.4843 32.5156 74.7655 33.1562L75.1562 34.0938C75.1794 34.2019 75.1794 34.3137 75.1562 34.4219C75.1358 34.5343 75.0901 34.6407 75.0224 34.7327C74.9547 34.8248 74.8668 34.9002 74.7655 34.9531H74.6093H74.2812C73.8443 35.0176 73.4113 35.1063 72.9843 35.2188C71.3073 35.6894 69.7513 36.5154 68.4218 37.6406C67.0602 38.7791 65.9891 40.2252 65.2968 41.8594C64.6504 43.5072 64.4196 45.2888 64.6249 47.0469C64.7889 48.8031 65.3619 50.4966 66.298 51.9916C67.2341 53.4866 68.5073 54.7417 70.0155 55.6562C71.6537 56.4183 73.4698 56.7156 75.2655 56.5156C76.8528 56.3774 78.4228 56.0843 79.953 55.6406C80.2396 55.5308 80.5388 55.4573 80.8437 55.4219C80.9495 55.3823 81.066 55.3823 81.1718 55.4219C81.2828 55.4565 81.3829 55.5193 81.4623 55.6042C81.5417 55.6891 81.5977 55.7932 81.6249 55.9062L82.9999 60.125C83.453 61.5312 83.8905 62.9531 84.2968 64.3438L84.578 65.375C84.578 65.7344 84.703 65.9531 84.7655 66.3125C84.859 66.9646 84.906 67.6225 84.9062 68.2812C85.0027 69.4656 84.7472 70.6521 84.1717 71.6917C83.5963 72.7314 82.7266 73.5779 81.6718 74.125C80.4559 74.7273 79.1774 75.1937 77.8593 75.5156L75.6562 76.1406C75.578 76.4062 75.6093 76.3438 75.5155 76.375Z" fill="black"/>
</svg>
