<svg width="100" height="100" viewBox="0 0 100 100" fill="none" xmlns="http://www.w3.org/2000/svg">
<path d="M51.9337 7.66663C51.6921 7.69997 51.3921 7.76663 51.2671 7.81663C51.1421 7.86663 50.8587 7.94163 50.6337 7.99996C50.0004 8.14163 49.6671 8.34997 49.0421 9.01663C47.1837 10.95 44.8087 15.0083 42.5587 20.0916C41.8587 21.675 40.7421 24.325 37.6921 31.7083L36.8587 33.7083H35.6171C34.9337 33.7083 32.0671 33.65 29.2504 33.5833C20.2337 33.3666 17.3921 33.4083 15.7504 33.7916C13.5754 34.3083 13.2004 34.4916 12.8421 35.2083C12.3171 36.2666 12.5754 37.3166 14.0087 39.9166C15.4171 42.4666 16.9004 43.9833 26.1837 52.35C27.5421 53.575 28.6754 54.6083 28.7004 54.65C28.7254 54.6916 28.4421 55.6 28.0754 56.675C26.4421 61.45 25.8337 63.45 23.8671 70.5833C21.5004 79.125 21.3171 80 21.3004 82.3L21.2921 83.6416L21.6504 84.3416C21.8504 84.725 22.0921 85.1 22.1837 85.175C22.3504 85.3 22.3421 85.3166 21.9837 85.8833C21.1587 87.1833 20.0004 89.15 20.0004 89.2583C20.0087 89.9083 21.7087 90.2166 23.3754 89.875C25.7671 89.375 29.2087 87.8166 31.3921 86.2333C32.0921 85.7333 34.3921 83.8833 40.5921 78.8333C44.2421 75.8583 48.3421 72.5416 48.3671 72.5416C48.3754 72.5416 49.2587 73.35 50.3337 74.3333C52.5504 76.3833 52.9587 76.75 55.4671 79.0416C56.4671 79.95 58.1671 81.525 59.2421 82.5416C62.8921 85.9666 64.3754 87.2666 66.4671 88.8416C67.6337 89.7166 68.1754 90.0416 68.8337 90.2666C69.2921 90.425 69.3921 90.4333 69.7337 90.3416C70.5004 90.1416 71.0004 89.6333 71.3421 88.75C71.4254 88.5333 71.5837 88.2166 71.6921 88.05C71.8087 87.8916 71.9254 87.6166 71.9587 87.4416C71.9921 87.2666 72.0504 87.0833 72.0921 87.0333C72.1254 86.9833 72.2587 86.5916 72.3837 86.1583C72.8671 84.45 72.7004 80.4916 71.8754 74.1666C71.4087 70.575 70.4587 65.4166 68.9921 58.425C68.7671 57.35 68.5837 56.4 68.5837 56.325C68.5837 56.1833 69.4837 55.5083 72.9587 53.0166C73.7421 52.4583 74.6921 51.7666 75.0837 51.4916C77.6421 49.6416 79.5587 48.2833 82.0421 46.5416C86.1337 43.675 86.6004 43.2666 87.3004 41.875C88.0421 40.4166 88.3587 39.275 88.3171 38.1916C88.2837 37.1333 88.1504 36.975 86.6587 36.225C85.3421 35.5666 84.0754 35.2083 82.0421 34.925C80.0171 34.6416 78.9421 34.5916 72.5837 34.4583C69.2587 34.3833 65.8171 34.3 64.9254 34.2666L63.3087 34.2083L62.5254 31.2083C60.2754 22.55 59.1754 18.8333 57.5254 14.3333C56.1171 10.5 54.9337 8.37496 54.0254 8.0833C53.8671 8.02496 53.6004 7.89163 53.4337 7.78329C53.1254 7.56663 52.7837 7.54163 51.9337 7.66663ZM52.9004 13.4833C54.0004 16.2916 55.3671 21 56.5421 26.0833C57.0337 28.2 58.3337 34.0166 58.3337 34.1083C58.3337 34.1583 56.8837 34.175 54.1921 34.1333C48.6921 34.0583 41.2171 33.9083 41.1754 33.8666C41.1587 33.85 41.2837 33.525 41.4587 33.15C41.6254 32.7666 42.7421 30.275 43.9254 27.6083C45.1087 24.9416 46.3754 22.15 46.7337 21.4C47.8671 19.0416 49.2921 16.5166 50.6337 14.5C51.3337 13.4333 52.2921 12.3 52.4171 12.375C52.4587 12.4 52.6754 12.9 52.9004 13.4833ZM28.1254 38.5833C33.2837 38.6833 34.7671 38.75 34.7171 38.8666C34.5171 39.3083 32.6921 44 32.0337 45.7666C31.5837 46.9916 31.1837 48 31.1587 48C31.1337 48 30.7587 47.675 30.3254 47.275C28.5087 45.6 24.4504 41.975 22.5754 40.3583L20.5671 38.625L21.1754 38.575C22.2004 38.5 23.9254 38.5 28.1254 38.5833ZM40.9337 39.125C41.9587 39.2 44.5587 39.4083 46.7087 39.5916C52.6254 40.0916 55.5921 40.3166 57.7087 40.425C58.8587 40.4833 59.6671 40.5583 59.7171 40.6166C59.8171 40.7083 60.0504 41.8083 61.5837 49.3333L62.3837 53.2833L61.4754 53.8666C58.8337 55.5333 53.8337 58.9333 49.8087 61.7833C48.6587 62.6 47.6671 63.2916 47.6087 63.3083C47.5504 63.3333 46.7004 62.5916 45.7254 61.6583C43.6254 59.6416 41.4254 57.575 37.1254 53.5833C35.3837 51.9666 33.9671 50.6083 33.9837 50.55C34.0004 50.5 34.3837 49.4833 34.8504 48.2916C36.0671 45.1583 37.2504 42.3333 38.5837 39.3916C38.7004 39.125 38.8087 39 38.9171 39C39.0087 39 39.9171 39.0583 40.9337 39.125ZM69.0837 41.0416C70.6171 41.1083 72.9837 41.2 74.3337 41.25C79.3837 41.4333 80.6004 41.4916 80.6337 41.525C80.7087 41.5916 76.9671 44.15 73.6671 46.2916C71.8421 47.4666 67.3421 50.25 67.2587 50.25C67.2337 50.25 67.1004 49.775 66.9754 49.1833C66.6504 47.7333 65.0837 41.0833 65.0254 40.9333C64.9837 40.8333 65.0754 40.825 65.6337 40.8666C65.9921 40.9 67.5504 40.975 69.0837 41.0416ZM34.9921 60.325C37.9754 63.0083 40.5171 65.325 41.9004 66.6083C42.1504 66.8333 42.3171 67.05 42.2754 67.075C40.7254 68.1416 38.5004 69.75 37.0837 70.8166C33.3837 73.6166 28.3087 77.9083 26.6754 79.6333C26.0254 80.325 24.5254 82.1416 23.9837 82.9166C23.8337 83.1166 23.8337 83.1083 23.8837 82.5C23.9587 81.5833 24.2254 80.075 24.4671 79.1666C24.7337 78.1833 27.4837 68.9916 28.2087 66.6666C29.4921 62.5583 31.4004 57.1416 31.5337 57.225C31.5754 57.2583 33.1337 58.65 34.9921 60.325ZM63.7504 60C63.7504 60.05 63.9754 61.2583 64.2504 62.6833C65.7254 70.3333 66.3171 74.425 66.7754 80.1833L66.8837 81.4916L64.1254 78.7666C62.6171 77.2666 60.5671 75.3083 59.5837 74.4166C57.7754 72.7833 54.6671 69.95 53.6754 69.025L53.1421 68.5333L54.7504 67.1666C58.3171 64.1333 63.5004 59.9166 63.6671 59.9166C63.7171 59.9166 63.7504 59.9583 63.7504 60Z" fill="black"/>
</svg>
