<svg id="visual" viewBox="0 0 900 600" width="900" height="600" xmlns="http://www.w3.org/2000/svg" xmlns:xlink="http://www.w3.org/1999/xlink" version="1.1"><path d="M0 452L21.5 458.7C43 465.3 86 478.7 128.8 469.5C171.7 460.3 214.3 428.7 257.2 417.2C300 405.7 343 414.3 385.8 426C428.7 437.7 471.3 452.3 514.2 448.3C557 444.3 600 421.7 642.8 428C685.7 434.3 728.3 469.7 771.2 483.3C814 497 857 489 878.5 485L900 481L900 601L878.5 601C857 601 814 601 771.2 601C728.3 601 685.7 601 642.8 601C600 601 557 601 514.2 601C471.3 601 428.7 601 385.8 601C343 601 300 601 257.2 601C214.3 601 171.7 601 128.8 601C86 601 43 601 21.5 601L0 601Z" fill="#ffffff" stroke-linecap="round" stroke-linejoin="miter"></path></svg>